/* XPM */
static char *_596872695775[] = {
/* columns rows colors chars-per-pixel */
"64 64 5 1 ",
"  c #373A3E",
". c #43474A",
"X c #515559",
"o c #6F757A",
"O c #82898F",
/* pixels */
"oooooooooooooooOOooooooooooooooooooooooooooooooOOOoooooooooooooo",
"OO..............................OO.............................O",
"OO.oooooooooooooooooXXoXooXXXX. OO.....ooooooooooooooooooXoXX. O",
"OO.oXXXXXXXXXXXXXXXXXXXXXXXXXX  OO.ooooXXXXXXXXXXXXXXXXXXXXXX  O",
"OO.oXXXXXXXXXXXXXXXXXXXXXXXXXX  OO.oXXXXXXXXXXXXXXXXXXXXXXXXX  O",
"OO.oXXXXXXoXXXXXXXXXXXX..XXXXX  OO.oXXXXXXXXXXXXXXXX.XXXXXXXX  O",
"OO.oXXXXXXXXXXXXXXXXXXX..XXXXX  OO.oXXXXXXXXXXXXXXXXXXXXXXXXX  O",
"OO.XXXXXXXXXX.XXXXXXoXXXXXXXXX  OO.oXXXoXXXXX.XXXXXXXXXXXXXXo  O",
"OO.XXXoXXXXXXXXXXXXXXXXXXXXXXo  OO.oXXXXXXXXXXXXXXXXXXoXXXXXo  O",
"OO.oXXXXXXXXXXXXXXXXXXXXX.XXXX  OO.oXXXXXXXXXXXX..XXXXXXXXXXX  O",
"OO.oXXXX.XXXXXXXXXXXXXXXXXXXXo  OO.oXX.XXXXXXXXX..XXXXXXXXXXo  O",
"OO.XXXXXXXXXoXXXXXXXXXXXXXXXXo  OO.oXXXXXXXXXXXXXXXXXXXXXXXXX  O",
"OO.oXXXXXXXXXXXXXXXXXXXXXXXooo  OO.oXXXXXXXXXXXXXXXoXXXXXXXXX  O",
"OO.XXXXXXXXXXXXXXXXXXXXoXoo     OO.ooooooooXoXXXXXXXXXXXXXXXX  O",
"OO.                             OO.                            O",
"OO                              OO                             O",
"OOooooooooooooooooooooooooooooooOOoooooooooooooooooooooooooooooO",
"..............OO...............................OOO..............",
"XXooXoXXoooo. OO.XooooooooooooooooooooXoXXoo.. OOO.ooooooooooooo",
"XXXXXXXXXXXo  OO.XoXXXXXXXXXXXXXXXXXXXXXXXXXo  OOO.oooXXXXXXXXXX",
"XXXXXXXXXXXo  OO.ooXXXXXXXXXXXXXXXXXXXXXXXXXo  OOO.oXXXXXXXXXXXX",
"XXXXXXXXXXXX  OO.oXXXXXXXXXXXXXXXXXXXXXXXXXXX  OOO.oXXXXXXXXXXXX",
"XXXXXXXXXXXo  OO.oXoXXXXXX..XXXXXXXXXXXXXXXXo  OOO.oXXXXXXXXXXXX",
"XXXXXXXXXXXX  OO.oXXXXXXXX..XXXXXXXXXXoXXXXXX  OOO.oXXXXXXXXXXXX",
"XXXXXXXXXXXX  OO.oXXXXXXXXXXXXXXXXXXXXXXXXXXX  OOO.oXXXXXXXXXXXX",
"XXXXXXXXXXXX  OO.oXXXXXXXXXX.XXXXXXXXXXXoXXX.  OOO.oXXXXXXXXXXXX",
"XXXXXXXXXXXX  OO.oXXXXXXXXXXXXXXXXXXXXXXXXXX.  OOO.oXXXXXXXXXXXX",
"XXXXXXXXXXXX  OO.oXXXXXXoXXXXXXXXXXXXXXXXXXXo  OOO.oXXXXXXXXXXXX",
"XXXXXXXXXXXo  OO.oXXXXXXXXXXXXXXXXXXXXXXXXXoo  OOO..ooXXXXXXXXXX",
"XXXXXXXXXXoo  OO.oooooooXXXoXooXX.X..XXXXooo.  OOO..oooooXXooXoX",
"              OO.                              OOO.             ",
"              OO                               OOO              ",
"ooooooooooooooOOoooooooooooooooooooooooooooooooOOOoooooooooooooo",
"O.............................OO................................",
"O.oooooooooXXooXXXXXXXXXoooo. OO.oooooooooooXXooXXXXXXooooooo.. ",
"O.oXXXXXXXXXXXXXXXXXXXXXXXXo  OO.oXXXXXXXXXXXXXXXXXXXXXXXXXXoo  ",
"O.oXXXXXXXXXXXXXXXXXXXXXXXXX  OO.oXXXXXXXXXXXXXXXXXXXXXXXXXXXo  ",
"O.oXXXXXXXXXXXXX.XXXXXXXXXXX  OO.XXXXoXXXXXXXXXXXXXXXXXXXXXXXo  ",
"O.XXXXXoXXXXXXXXXXX..XXXXoXX  OO.oXXXXXXXXX.XXXXXXXXXXXX.XXXXX  ",
"O.oXXXXXXXXXXXXXXXX..XXXXXX.  OO.XXXXXXXXXXXXXXXXXXoXXXXXXXXXX  ",
"O.oXXXXXXoXXXXXXXXXXXXXXXXX.  OO.XXXXXXXXXXXXXXXXXXXXXXXXXXXXX  ",
"O.XXXXXXXXXXXXXXXoXXXXXXXXXo  OO.XXXXXXoXXXXXXXXXXXXXX..XXXXXX  ",
"O.oXXXX.XXXXXXXXXXXXXXXXXXXX  OO.XXXXXXXXXXXXXXXXXXXXX..XXXXXX  ",
"O.XXXXXXXXXXXXXXXXXXXXXXXXXo  OO.XXXXXXXXXXXXXXXXXXXXXXXXXXXXo  ",
"O.XXXXXXXXXXXXXXXXXXXXXXXXXo  OO.XXXXXXXXXXXXXXXXXXXXXXXXXXXXo  ",
"O.XXXXXXXXX..X....XXXXoooXoo  OO.XXX...X.XX..XXXXXXXXoXoooXoo   ",
"O.                            OO.                               ",
"O                             OO                                ",
"OoooooooooooooooooooooooooooooOOoooooooooooooooooooooooooooooooo",
"...............OO..............................OOO..............",
"ooooooXoXXoo.. OO..oooooXXooXoXXXXXXXXXXXXXXXX OOO.Xoooooooooooo",
"XXXXXXXXXXXXo  OO.ooXXXXXXXXXXXXXXXXXXXXXXXXXX OOO.oXXXXXXXXXXXX",
"XXXXXXXXXXXXo  OO.oXXXXXXXXXXXXXXXXXXXXXXXoXXX OOO.oXXXXXXXXXXXX",
"XXXXXXXXXXXXX  OO.oXXXXXXXXXXXXXXXXXXXXXXXXXXX OOO.XXXXXXXXXXXXX",
"XXXXXXXXXXXXo  OO.XXXXXXXXX.XXXXXXXXXXXXXXXXXX OOO.XXXXXXXX..XXX",
"XXXXXXoXXXXXX  OO.oXXXXXXXXXXXXXXX.XXXXXXXXXXX OOO.XXXXXXXX..XXX",
"XXXXXXXXXXXXX  OO.XXXXXoXXXXXXXXXXXXXXXXXXXXXX OOO.XXXXXXXXXXXXX",
"XXXXXXXXoXXX.  OO.XXXXXXXXXXXXXXXXXXoXXXXXXXXX OOO.oXXXXXXXXX.XX",
"XXXXXXXXXXXX.  OO.XXXXXXXXX..XXXXXXXXXXXXXXXXX OOO.XXXXXXXXXXXXX",
"XXXXXXXXXXXXo  OO.XXXXXXXXX..XXXXXXXXXXX.XXXXo OOO.oXXXXXoXXXXXX",
"XXXXXXXXXXXXo  OO.ooXXXXXXXXXXXXXXXXXXXXXXXXXo OOO.oXXXXXXXXXXXX",
"XX.X..XXXooo.  OO...oooXoXXXXXXXXXXXXXXXXXXoo  OOO.oooXXXXXXoXoo",
"               OO..                            OOO.             ",
"               OO                              OOO              "
};
