/* XPM */
static char *_596872125523[] = {
/* columns rows colors chars-per-pixel */
"64 64 5 1 ",
"  c #8D6343",
". c #D09765",
"X c #E7C48A",
"o c #F3D19B",
"O c #FCE5B5",
/* pixels */
"....... ..............................  ........................",
"....... ..XOOOOOOOOOOOOoOOooooOoOOOX..  ........................",
"oooXX.. ..OOXXXXXXXXXXXXXXXXXXXXXXXO..  ..OOOOOOOOOOOOOooOOOoOoo",
"XXXXXX. ..OXXXXXXXXXXXXXXXXXXXXXXXXX..  ..OXXXXXXXXXXXXXXXXXXXXX",
"XXXXXX. ..OXXXXXXXXXXXXXXXXXXXXXXXXX..  .oXXXXXXXXXXXXXXXXXXXXXX",
"XXXXXX. ..OXXXXXXXXXXXXXXXXXXXXXXXXX..  .oXXXXXXXXXXXXXXXXXXXXXX",
"XXXXXX. ..OXXXXXXXXXXXXXXXXXXXXXXXXo..  .oXXXXXXXXXXXXXXXXXXXXXX",
"XXXXXX. ..XXXXXXXXXXXXXXXXXXXXXXXXXo..  .oXXXXXXXXXXXXXXXXXXXXXX",
"XXXXXX. ..XXXXXXXXXXXXXXXXXXXXXXXXXX..  .XXXXXXXXXXXXXXXXXXXXXXX",
"XXXXXX. ...XXXXXXXXXXXXXXXXXXXXXXXXo..  .XXXXXXXXXXXXXXXXXXXXXXX",
"XXXXXX.  ..XXXXXXXXXXXXXXXXXXXoXoooo..  .XXXXXXXXXXXXXXXXXXXXXXX",
"XXXXXX.  .............................  .XXXXXXXXXXXXXXXXXXXXXXX",
".......  ............................   ........................",
"                                                                ",
"....................   .................................   .....",
"....................  ..OOOOOOOOOOOOOOoOoooXXXXXoooooo...  .....",
"OOOooOOoOooXXXXXXXX.. .OXXXXXXXXXXXXXXXXXXXXXXXXXXXXXXoo. ..OOOO",
"XXXXXXXXXXXXXXXXXXX.. .OXXXXXXXXXXXXXXXXXXXXXXXXXXXXXXXX. ..OXXX",
"XXXXXXXXXXXXXXXXXXXX. .OXXXXXXXXXXXXXXXXXXXXXXXXXXXXXXXX. .oXXXX",
"XXXXXXXXXXXXXXXXXXXX. .oXXXXXXXXXXXXXXXXXXXXXXXXXXXXXXXX. .oXXXX",
"XXXXXXXXXXXXXXXXXXXX. .OXXXXXXXXXXXXXXXXXXXXXXXXXXXXXXXo. .oXXXX",
"XXXXXXXXXXXXXXXXXXXX. .oXXXXXXXXXXXXXXXXXXXXXXXXXXXXXXXX. .oXXXX",
"XXXXXXXXXXXXXXXXXXXX. .oXXXXXXXXXXXXXXXXXXXXXXXXXXXXXXXo. .XXXXX",
"XXXXXXXXXXXXXXXXXXXX. .XooXXXXXXXXXXXXXXXXXXXXXoXXooXooo. .oXXXX",
"..................... ................................... ......",
"                                                                ",
"............. ............................. ................... ",
".XXXOOOOoOoo. .XOOOOOOOOOOXXXXOOOoOooooXoX. ................... ",
".XOOXXXXXXXX. .XOXXXXXXXXXOOOOOXXXXXXXXXXX. .OOOOOOOooOOoOoooX. ",
".OXXXXXXXXXX. .OXXXXXXXXXXXXXXXXXXXXXXXXXX. .OXXXXXXXXXXXXXXXX. ",
".OXXXXXXXXXX. .oXXXXXXXXXXXXXXXXXXXXXXXXXX. .oXXXXXXXXXXXXXXXX. ",
".oXXXXXXXXXX. .oXXXXXXXXXXXXXXXXXXXXXXXXXX. .OXXXXXXXXXXXXXXXX. ",
".oXXXXXXXXXX. .XXXXXXXXXXXXXXXXXXXXXXXXXXX. .oXXXXXXXXXXXXXXXX. ",
".oXXXXXXXXX.. ..XXXXXXXXXXXXXXXXXXXXXX..... .XXXXXXXXXXXXXXXXX. ",
"............   ..........................   ................... ",
"                                                                ",
"......................     .........................   .........",
"........................  ...OOOOOOOOOooOOoOoooooXo. ...........",
"OOOOOOO.....ooooooXoXX..  .OOXXXXXXXXXXXXXXXXXXXXXX. ..OOOOOOOOO",
"XXXXXXOOoOoooXXXXXXXXXX.  OOXXXXXXXXXXXXXXXXXXXXXXX. ..OoooooXXX",
"XXXXXXXXXXXXXXXXXXXXXXX.. OXXXXXXXXXXXXXXXXXXXXXXXX. ..OoXXXXXXX",
"XXXXXXXXXXXXXXXXXXXXXXX.. OXXXXXXXXXXXXXXXXXXXXXXXX. ..OoXXXXXXX",
"XXXXXXXXXXXXXXXXXXXXXXXX. OXXXXXXXXXXXXXXXXXXXXXXXX. ..OXXXXXXXX",
"XXXXXXXXXXXXXXXXXXXXXXXX. oXXXXXXXXXXXXXXXXXXXXXXXX. ..OXXXXXXXX",
"XXXXXXXXXXXXXXXXXXXXXXXX. OXXXXXXXXXXXXXXXXXXXXXXXX. ..OXXXXXXXX",
"XXXXXXXXXXXXXXXXXXXXXXXX. oXXXXXXXXXXXXXXXXXXXXXXXo. ..OXXXXXXXX",
"XXXXXXXXXXXXXXXXXXXXXXXX. oXXXXXXXXXXXXXXXXXXXXXXXX. ..oXXXXXXXX",
"XXXXXXXXXXXXXXXXXXXXXXXX. oXXXXXXXXXXXXXXXXXXXXXXXo. ..OXXXXXXXX",
"XXXXXXXXXXXXXXXXXXXXXXXX. oXXXXXXXXXXXXXXXXXXXoXooo. ..oXXXXXXXX",
"XXXXXXXXXXXXXXXXXXXXXXX.. .....XXXXXXXXXXX.......... ..oXXXXXXXX",
"......................... ......................      ..........",
"                                                                ",
"..............      ......................   ...................",
"XXXoooooooo.... ..............XXXXXXXXXXX.. ..XOOOOOOOoOoooooXXX",
"oOoOOOXXXXXoo.. .XOOOOOOOOOOOOOOoOoooXXXXX. ..OXXXXXXXXXXXoooooo",
"XXXXXXXXXXXXX.. .XOXXXXXXXXXXXXXXXXXXXXXXX. ..OXXXXXXXXXXXXXXXXX",
"XXXXXXXXXXXXX.. .XOXXXXXXXXXXXXXXXXXXXXXXX. ..oXXXXXXXXXXXXXXXXX",
"XXXXXXXXXXXXX.. .XoXXXXXXXXXXXXXXXXXXXXXXX. ..OXXXXXXXXXXXXXXXXX",
"XXXXXXXXXXXXX.. .XOXXXXXXXXXXXXXXXXXXXXXXX. ..oXXXXXXXXXXXXXXXXX",
"XXXXXXXXXXXXX.. .XoXXXXXXXXXXXXXXXXXXXXXXX. ..oXXXXXXXXXXXXXXXXX",
"XXXXXoXoooXXo.. .XXXXXXXXXXXXXXXXXXXXXXXXX. ..XXXXXXXXXXXXXXXXXX",
"............... ........................... ....................",
"...............  ..........................   ..................",
"                                                                "
};
