/* XPM */
static char *_596872240529[] = {
/* columns rows colors chars-per-pixel */
"64 64 17 1 ",
"  c black",
". c #291508",
"X c #4D0009",
"o c #402000",
"O c #452D07",
"+ c #734D11",
"@ c #66593D",
"# c #801320",
"$ c #A8192A",
"% c #804000",
"& c #CC7E0A",
"* c #D94153",
"= c #B38336",
"- c #FFBB00",
"; c #A1916E",
": c #D7CEB3",
"> c None",
/* pixels */
">>>>>>>>>>>>>>>>>>>>>>>>>>>>>>>>>>>>>>>>>>>>>>>>>>>>>>>>>>>>>>>>",
">>>>>>>>>>>>>>>>>>>>>>>>>>>>>>>>>>>>>>>>>>>>>>>>>>>>>>>>>>>>>>>>",
">>>>>>>>>>>>>>>>>>>>>>>>>>>>>>>>>>>>>>>>>>>>>>>>>>>>>>>>>>>>>>>>",
">>>>>>>>>>>>>>>>>>>>>>>>>>>>>>>>>>>>>>>>>>>>>>>>>>>>>>>>>>>>>>>>",
">>>>>>>>>>>>>>>>>>>>>>>>>>>>>>>>>>>>>>>>>>>>>>>>>>>>>>>>>>>>>>>>",
">>>>>>>>>>>>>>>>>>>>>>>>>>>>>>   >>>>>>>>>>>>>>>>>>>>>>>>>>>>>>>",
">>>>>>>>>>>>>>>>>>>>>>>>>>>>> ++.  >>>>>>>>>>>>>>>>>>>>>>>>>>>>>",
">>>>>>>>>>>>>>>>>>>>>>>>>>>> ++..==  >>>>>>>>>>>>>>>>>>>>>>>>>>>",
">>>>>>>>>>>>>>>>>>>>>>>>>>> ++..=====  >>>>>>>>>>>>>>>>>>>>>>>>>",
">>>>>>>>>>>>>>>>>>>>>>>>>> ++..==OOO===  >>>>>>>>>>>>>>>>>>>>>>>",
">>>>>>>>>>>>>>>>>>>>>>>>> OO..==OOOOOO=+=  >>>>>>>>>>>>>>>>>>>>>",
">>>>>>>>>>>>>>>>>>>>>>>> ++..++OOOOOOOOO=++  >>>>>>>>>>>>>>>>>>>",
">>>>>>>>>>>>>>>>>>>>>>> ++..==OOOOOOOOOOOO+++  >>>>>>>>>>>>>>>>>",
">>>>>>>>>>>>>>>>>>>>>> OO..++OOOOOOOOOOOOOOO+++  >>>>>>>>>>>>>>>",
">>>>>>>>>>>>>>>>>>>>> OO..++OOOOOOOOOOOOOOOOOO+++  >>>>>>>>>>>>>",
">>>>>>>>>>>>>>>>>>>> OO..++OOOOOOOOOOOOOOOOOOOOO+++  >>>>>>>>>>>",
">>>>>>>>>>>>>>>>>>> OO..++OOOOOOOOOOOOOOOOOOOOOOOO --  >>>>>>>>>",
">>>>>>>>>>>>>>>>>> OO..++OOOOO::OOOOOOOOOOOOOOOOO -&&--  >>>>>>>",
">>>>>>>>>>>>>>>>> OO..++OOOOO:;;::OOOOOOOOOOOOOOOO  &&&--  >>>>>",
">>>>>>>>>>>>>>>> OO..++OOOOO:;::;;::OOOOOOOOOOOOOOOO  &&&&- >>>>",
">>>>>>>>>>>>>>> OO..++OOOOO:;:::::;;::OOOOOOOOOOOOOOO &&&&o >>>>",
">>>>>>>>>>>>>> OO..++OOOOO:;::::::::;;::OOOOOOOOOOOO &&&&oo >>>>",
">>>>>>>>>>>>> OO..++OOOOOO:;;:::::::::;;::OOOOOOOOO &&&&oo  >>>>",
">>>>>>>>>>>> OO..++OOOOOOO.::;;:::::::::;;:OOOOOOO &&&&oo  >>>>>",
">>>>>>>>>>> ....++OOOOOOOOO..::;;::::::::;:OOOOOOOO  &oo  >>>>>>",
">>>>>>>>>> OO..++OOOOOOOOOOOO..::;;:::::;:.OOOOOOOOO  o  >>>>>>>",
">>>>>>>>> OO..++OOOOOOOOOOOOOOO..::;;::;:.OOOOOOOOO .   >>>>>>>>",
">>>>>>>> ....++OOOOOOOOOOOOOOOOOO..::;;:.OOO  OO   ..  >>>>>>>>>",
">>>>>>> ....++OOOOOOOOOOOOOOOOOOOOO..::.OOO --  -- . ; >>>>>>>>>",
">>>>>> ....++OOOOOOOOOOOOOOOOOOOOOOOO..OOO -&&&&&o  @; >>>>>>>>>",
">>>>> ....OOOOOOOOOOOOOOOOOOOOOOOOOOOOOOOO -&&&&oo @@:   >>>>>>>",
">>>>  ====..OOOOOOOOOOOOOOOOOOOOOOOOOOOOOO oo&&oo @@@: --  >>>>>",
">>>> ==..===..OOOOOOOOOOOOOOOOOOOOOOOOOOOOO -&oo  @;@: &&&- >>>>",
">>>> =..   ===..OOOOOOOOOOOOOOOOOOOOOOOOOOO &oo % ;@; %%&&o >>>>",
">>>> =..  @  =+=..OOOOOOOOOOOOOOOOOOOOOOOOO oo %% ;; %%%%oo >>>>",
">>>> =..  @@;  =++..OOOOOOOOOOOOOOOOOOOOOO  o %%  ; %%%%oo  >>>>",
">>>> +..  @@;;;  +++..OOOOOOOOOOOOOOO  OO .  %% .  %%%%oo  >>>>>",
">>>> =..  @@::;;;  +++..OOOO  OOOOOO --  ..  % .. O  %oo  >>>>>>",
">>>> +..  @@;:::;;;  +++..O --  OOO &&&- . @  ... OO  o  >>>>>>>",
">>>> +..  @@;;#:::;;;  +++ --&&&   &&&&o  @@ .... O .   >>>>>>>>",
">>>> +....  ;*###:::;;;  + %--&&&&&&&&oo @@; ....  ..  >>>>>>>>>",
">>>> +......*$$$###:::;;;  %%%-&&&&&&oo @@;; .... ..  >>>>>>>>>>",
">>>> ++.....*$$$$$X;;:::;;;  %%%-&&&oo @@;;; .... .  >>>>>>>>>>>",
">>>>  +++..*$$$$$X:::;;:::;;;  %%%&oo @@;;;  ...    >>>>>>>>>>>>",
">>>>>   +++*$$$$$X  ::::;:::;;;  %%o @@;;; O .. %  >>>>>>>>>>>>>",
">>>>>>>   +*$$$$X..O  ::::::::;;;   @@;@; OO . %% >>>>>>>>>>>>>>",
">>>>>>>>>  *$$$$X.OOOO  ::::::::;;@@@;;; OOO  %%  >>>>>>>>>>>>>>",
">>>>>>>>>> *$$$$X..OOOOO  :::;::::@@;@; OOO  %%  >>>>>>>>>>>>>>>",
">>>>>>>>>> **X$$X++..OOOOO  :::;;:@;@; OOO . %  >>>>>>>>>>>>>>>>",
">>>>>>>>>> *X $$X +++..OOOOO  :::;@@;  OO ..   >>>>>>>>>>>>>>>>>",
">>>>>>>>>> X  X$X   +++..OO &&  ::@; %%  ..   >>>>>>>>>>>>>>>>>>",
">>>>>>>>>>     $X >   +++. &&&&&  ; %%%% .  >>>>>>>>>>>>>>>>>>>>",
">>>>>>>>>>>>>> XX >>>   ++ --&&&&& %%%%o   >>>>>>>>>>>>>>>>>>>>>",
">>>>>>>>>>>>>>    >>>>>    %%--&&&&&%%oo  >>>>>>>>>>>>>>>>>>>>>>",
">>>>>>>>>>>>>>>>>>>>>>>>>   %%%--&&&&oo  >>>>>>>>>>>>>>>>>>>>>>>",
">>>>>>>>>>>>>>>>>>>>>>>>>>>   %%%--&oo  >>>>>>>>>>>>>>>>>>>>>>>>",
">>>>>>>>>>>>>>>>>>>>>>>>>>>>>   %%%oo  >>>>>>>>>>>>>>>>>>>>>>>>>",
">>>>>>>>>>>>>>>>>>>>>>>>>>>>>>>   %o  >>>>>>>>>>>>>>>>>>>>>>>>>>",
">>>>>>>>>>>>>>>>>>>>>>>>>>>>>>>>>    >>>>>>>>>>>>>>>>>>>>>>>>>>>",
">>>>>>>>>>>>>>>>>>>>>>>>>>>>>>>>>>>>>>>>>>>>>>>>>>>>>>>>>>>>>>>>",
">>>>>>>>>>>>>>>>>>>>>>>>>>>>>>>>>>>>>>>>>>>>>>>>>>>>>>>>>>>>>>>>",
">>>>>>>>>>>>>>>>>>>>>>>>>>>>>>>>>>>>>>>>>>>>>>>>>>>>>>>>>>>>>>>>",
">>>>>>>>>>>>>>>>>>>>>>>>>>>>>>>>>>>>>>>>>>>>>>>>>>>>>>>>>>>>>>>>",
">>>>>>>>>>>>>>>>>>>>>>>>>>>>>>>>>>>>>>>>>>>>>>>>>>>>>>>>>>>>>>>>"
};
